<?xml version="1.0" encoding="UTF-8"?>
<svg enable-background="new 0 0 172 65" version="1.1" viewBox="0 0 172 65" xml:space="preserve" xmlns="http://www.w3.org/2000/svg" xmlns:xlink="http://www.w3.org/1999/xlink">
<style type="text/css">
	.st0{fill:#06A7E0;}.st1{fill:#2574BB;}.st2{clip-path:url(#h);fill:#55575A;}	.st3{fill:#55575A;}	.st4{clip-path:url(#f);fill:#55575A;}	.st5{clip-path:url(#d);fill:#55575A;}	.st6{clip-path:url(#b);fill:#55575A;}	.st7{clip-path:url(#j);fill:#55575A;}.st8{fill:none;}
</style>
	<polygon class="st0" points="21.8 5.5 21.8 19.2 8.1 19.2 20.7 5.5"/>
	<polygon class="st1" points="8.1 32.9 8.1 19.2 21.8 19.2 9.2 32.9"/>
		<defs><rect id="i" x="-468.9" y="-190.1" width="841.9" height="595.3"/></defs>
		<clipPath id="h"><use xlink:href="#i"/></clipPath>
		<path class="st2" d="m32.6 38.8c-1 0-1.7 0.7-1.7 1.7s0.8 1.7 1.7 1.7c1 0 1.7-0.7 1.7-1.7 0.1-0.9-0.7-1.7-1.7-1.7"/><path class="st2" d="m101.4 38.8c-1 0-1.7 0.7-1.7 1.7s0.8 1.7 1.7 1.7c1 0 1.7-0.7 1.7-1.7 0-0.9-0.8-1.7-1.7-1.7"/><path class="st2" d="m129.5 50.8c-1.5 0-2.6-1.1-2.6-2.7s1.1-2.6 2.6-2.6 2.6 1 2.6 2.6-1.1 2.7-2.6 2.7m0-7.7c-3.2 0-5.3 2-5.3 5s2.1 5.1 5.3 5.1c3.1 0 5.2-2 5.2-5.1 0-3-2.1-5-5.2-5"/><path class="st2" d="m54.6 45.6v5.2c-0.6 0.1-1.3 0.1-2.2 0.1-1.8 0-2.4-1.2-2.4-2.7s0.7-2.7 2.4-2.7c0.9 0 1.6 0 2.2 0.1m-7.3 2.5c0.1 3.1 1.7 5 4.7 5 2 0 3.1-0.2 5.3-0.4v-9c-2.2-0.3-3.3-0.4-5.3-0.4-3-0.1-4.6 1.9-4.7 4.8"/><path class="st2" d="m94.9 45.6v5.2c-0.6 0.1-1.3 0.1-2.2 0.1-1.8 0-2.4-1.2-2.4-2.7s0.7-2.7 2.4-2.7c0.9 0 1.6 0 2.2 0.1m-7.3 2.5c0.1 3.1 1.7 5 4.7 5 2 0 3.1-0.2 5.3-0.4v-9c-2.2-0.3-3.3-0.4-5.3-0.4-3-0.1-4.6 1.9-4.7 4.8"/><path class="st2" d="m42.4 30.5h-6.8v-3.2l4.3-1.2c0.9-0.2 1.7-0.3 2.4-0.3 1.7 0 2.7 0.9 2.7 2.3-0.1 1.4-1.1 2.4-2.6 2.4m-0.1-7.2c-1 0-2.2 0.2-3 0.5l-3.7 1.1v-1.6h-1.5l-1.2 1.3v6.7c0 2.3-1.3 3.6-3.5 3.6s-3.4-1.3-3.4-3.8c0-0.8 0.1-1.8 0.4-2.9l0.1-0.6-1.3-0.3-1.6 1.1c-0.2 0.9-0.3 1.8-0.3 2.8 0 3.7 2.5 6.2 6.1 6.2 0.8 0 1.6-0.1 2.4-0.4 1.9-0.6 3.2-2.2 3.6-4.1h0.1 6.8c3.1 0 5.2-2 5.2-4.9 0.1-2.7-2-4.7-5.2-4.7"/><path class="st2" d="m59.9 36c0-0.9-0.7-1.6-1.6-1.6s-1.6 0.7-1.6 1.6 0.7 1.6 1.6 1.6 1.6-0.7 1.6-1.6"/><path class="st2" d="m53 36c0 0.9 0.7 1.6 1.6 1.6s1.6-0.7 1.6-1.6-0.7-1.6-1.6-1.6-1.6 0.7-1.6 1.6"/><path class="st2" d="m38.3 23c0.9 0 1.6-0.7 1.6-1.6s-0.7-1.6-1.6-1.6-1.6 0.7-1.6 1.6c-0.1 0.9 0.7 1.6 1.6 1.6"/><path class="st2" d="m158 30.5h-2.1c-2.1 0-2.4-1.4-2.4-2.2v-0.2c0-0.8 0.3-2.2 2.2-2.2 1.9 0.1 2.2 1.4 2.2 2.2v2.4zm-19.4 0h-6.8v-3.2l4.3-1.2c0.9-0.2 1.7-0.3 2.4-0.3 1.7 0 2.7 0.9 2.7 2.3s-1 2.4-2.6 2.4m17.2-7.2c-0.1 0-0.1 0 0 0-2.9 0-4.9 1.8-5 4.5v0.2c0 0.9-0.3 2.5-2.4 2.5h-2.3c-2 0-2.4-1.6-2.4-2.5 0-2.9-2.1-4.6-5.3-4.6-1 0-2.2 0.2-3 0.5l-3.7 1.1v-5.7h-1.5l-1.2 1.3v10h-5.5c-2.1 0-2.3-1.5-2.3-2.4v-8.9h-1.5l-1.2 1.3v7.7c0 2.9 2 4.8 4.9 4.8h15.2c1.6 0 2.9-0.5 3.8-1.4 0.9 0.9 2.1 1.4 3.6 1.4h2.6c1.5 0 2.7-0.5 3.5-1.3 0.9 0.8 2.1 1.3 3.6 1.3 2.5 0 4.9-0.6 4.9-0.6v-4.5c0-2.8-1.9-4.6-4.8-4.7"/>
	<polygon class="st3" points="110.3 19.2 108.8 19.2 107.6 20.5 107.6 33 110.3 33"/>
		<defs><rect id="g" x="-468.9" y="-190.1" width="841.9" height="595.3"/></defs>
		<clipPath id="f"><use xlink:href="#g"/></clipPath>
		<path class="st4" d="m76 27.9v-8.7h-1.5l-1.2 1.3v7.4c0 1-0.3 2.6-2.4 2.6h-1.1c-2 0-2.4-1.7-2.4-2.7v-4.4h-1.5l-1.2 1.3v8.2c0 0.2 0 0.4-0.1 0.6-0.3 0.8-1.2 1.2-2.1 1.4l-0.8 0.2 0.3 1.3 1.7 1c2.1-0.5 3.4-2.1 3.7-4.3v-0.7c0.7 0.3 1.4 0.5 2.3 0.5h1.4c2.9 0.1 4.9-1.9 4.9-5"/><path class="st4" d="m116.1 32.4v-9h-1.5l-1.2 1.3v8.2c0 0.2 0 0.4-0.1 0.6-0.3 0.8-1.2 1.2-2.1 1.4l-0.8 0.2 0.3 1.3 1.7 1c2.3-0.5 3.7-2.4 3.7-5"/><path class="st4" d="m98.4 25c0.9 0 1.6-0.7 1.6-1.6s-0.7-1.6-1.6-1.6-1.6 0.7-1.6 1.6 0.7 1.6 1.6 1.6"/><path class="st4" d="m94.8 25c0.9 0 1.6-0.7 1.6-1.6s-0.7-1.6-1.6-1.6-1.6 0.7-1.6 1.6c-0.1 0.9 0.6 1.6 1.6 1.6"/><path class="st4" d="m102.1 24.7v3.5c0 0.9-0.3 2.3-2.3 2.3h-7.1c-1.4 0-2.4-1-2.4-2.2 0-0.9 0.3-2 0.5-2.6l0.2-0.7-1.3-0.3-1.7 1.2c-0.2 0.8-0.4 1.6-0.4 2.3 0 3 2.1 4.8 5.3 4.8h7c2.9 0 4.9-2 4.9-4.9v-4.8h-1.5l-1.2 1.4z"/>
	<polygon class="st3" points="78.5 20.5 78.5 33 81.2 33 81.2 19.2 79.7 19.2"/>
		<defs><rect id="e" x="-468.9" y="-190.1" width="841.9" height="595.3"/></defs>
		<clipPath id="d"><use xlink:href="#e"/></clipPath>
		<path class="st5" d="m54.2 33h2.8c2.9 0 4.9-2 4.9-5v-4.7h-1.5l-1.2 1.3v3.3c0 0.9-0.3 2.5-2.4 2.5h-2.5c-2.1 0-2.4-1.6-2.4-2.5v-8.8h-1.5l-1.2 1.3v7.6c0.2 3 2.1 5 5 5"/><path class="st5" d="m24.5 43.6l-1.2 1.4v7.9h2.7v-6.9c1.1-0.1 2.2-0.1 3.3-0.1v-2.6c-1 0-2.2 0.1-3.3 0.2-0.5 0-1 0.1-1.5 0.1"/><path class="st5" d="m106.4 43.6l-1.2 1.3v7.9h2.7v-6.8c1.1-0.1 2.2-0.1 3.3-0.1v-2.6c-1 0-2.2 0.1-3.3 0.2-0.5 0-1 0.1-1.5 0.1"/><path class="st5" d="m137.9 43.6l-1.2 1.3v7.9h2.7v-6.8c1.1-0.1 2.2-0.1 3.3-0.1v-2.6c-1 0-2.2 0.1-3.3 0.2-0.5 0-1 0.1-1.5 0.1"/>
	<polygon class="st3" points="31.3 44.9 31.3 52.8 34 52.8 34 43.5 32.5 43.5"/>
	<polygon class="st3" points="100 44.9 100 52.8 102.7 52.8 102.7 43.5 101.3 43.5"/>
		<defs><rect id="c" x="-468.9" y="-190.1" width="841.9" height="595.3"/></defs>
		<clipPath id="b"><use xlink:href="#c"/></clipPath>
		<path class="st6" d="m148.8 50.7c-1.1 0-1.5-0.6-1.5-1.6v-3.2h2.9v-2.6h-2.9v-3h-1.5l-1.2 1.3v8c0.1 2.3 1.3 3.6 3.6 3.6 1.2 0 1.7-0.1 2.7-0.3l-0.3-2.2h-1.8"/>
	<polygon class="st3" points="43.7 43.5 43.4 44.1 41.1 49.1 38.2 43.5 37.1 43.5 35.8 44.9 35.8 44.9 39.6 52.2 37.2 57.3 40.2 57.3 45.9 45.4 46.1 44.9 44.9 43.5"/>
		<defs><rect id="a" x="-468.9" y="-190.1" width="841.9" height="595.3"/></defs><clipPath id="j"><use xlink:href="#a"/></clipPath>
  <path class="st7" d="m157.4 47.2c-1.4-0.3-2.4-0.3-2.4-1 0-0.5 0.5-0.8 1.3-0.8 1.6 0 3.6 0.7 3.6 0.7l0.2-0.8-0.2-0.3-0.7-1.3s-0.5-0.1-0.6-0.2c-0.7-0.2-1.5-0.3-2.3-0.3-2.5 0-4.1 1.1-4.1 3.1 0 1.6 1.1 2.4 3.2 2.8 1.2 0.2 2.5 0.3 2.5 1.1 0 0.5-0.7 0.7-1.6 0.7s-2.2-0.2-3.8-0.8l-0.5 2.2c1.6 0.6 3.1 0.8 4.2 0.8 2.5 0 4.2-1 4.2-3.1 0.3-1.7-0.8-2.3-3-2.8"/><path class="st7" d="m77.3 43.2c-0.9 0-1.9 0.1-2.9 0.2v-4.4h-1.4l-1.2 1.3v12.5h2.7v-6.9c0.8-0.1 1.5-0.2 2.2-0.2 1.1 0 1.8 0.7 1.8 1.9v5.2h2.7v-6c0-2.1-1.6-3.6-3.9-3.6"/><path class="st7" d="m66.5 50.8c-0.6 0.1-1.3 0.1-2.2 0.1-1.8 0-2.4-1.2-2.4-2.7v-0.1c0-1.5 0.6-2.6 2.6-2.6 0.5 0 1.4 0.1 2 0.2v5.1zm0-10.4v3.1c-0.6-0.1-1.7-0.2-2.4-0.2-3.2 0-4.9 1.9-4.9 4.9v0.1c0.1 3 1.7 4.9 4.7 4.9 2 0 3.1-0.2 5.3-0.4v-13.8h-1.5l-1.2 1.4z"/><path class="st7" d="m117.9 50.7c-0.6 0-1.2 0-2.4-0.2v-5c0.6-0.1 1.3-0.1 2.2-0.1 1.8 0 2.5 1.2 2.5 2.7s-1 2.6-2.3 2.6m0.2-7.5c-1.4 0-2.9 0.1-4.1 0.3l-1.2 1.3v12.5h2.7v-4.5c1.1 0.1 1.9 0.1 2.8 0.1 2.6 0 4.5-1.9 4.5-4.8-0.1-2.9-1.7-4.9-4.7-4.9"/>
<rect class="st8" x="33" y="-13" width="209" height="91"/>
</svg>